# xmcd CD database file
#
# Track frame offsets:
#	150
#	27971
#	47234
#	60090
#	85798
#	99455
#	119030
#	130630
#	153877
#	169892
#
# Disc length: 2657 seconds
#
# Revision: 0
# Processed by: cddbd v1.5.1PL0 Copyright (c) Steve Scherf et al.
# Submitted via: CDex 1.51
#
DISCID=760a5f0a
DTITLE=little white snow - LiNKS
DYEAR=2004
DGENRE=Game
TTITLE0=Ana
TTITLE1=遙かな年月
TTITLE2=は〜りぃすたーふぃっしゅ
TTITLE3=幻想
TTITLE4=資料室のお茶会
TTITLE5=空に光る
TTITLE6=同じ高みへ
TTITLE7=小さな手のひら
TTITLE8=渚
TTITLE9=それは風のように
EXTD=YEAR: 2004
EXTT0=
EXTT1=
EXTT2=
EXTT3=
EXTT4=
EXTT5=
EXTT6=
EXTT7=
EXTT8=
EXTT9=
PLAYORDER=
